PathFileType	4	(X/Y/Z)	5_coords_data.trc
DataRate	CameraRate	NumFrames	NumMarkers	Units	OrigDataRate	OrigDataStartFrame	OrigNumFrames
30.0	30.0	9	21	m	30.0	1	68
Frame#	Time	THUMB_TIP	THUMB_IP	THUMB_MCP	THUMB_CMC	INDEX_TIP	INDEX_DIP	INDEX_PIP	INDEX_MCP	MIDDLE_TIP	MIDDLE_DIP	MIDDLE_PIP	MIDDLE_MCP	RING_TIP	RING_DIP	RING_PIP	RING_MCP	PINKY_TIP	PINKY_DIP	PINKY_PIP	PINKY_MCP	WRIST
X1	Y1	Z1	X2	Y2	Z2	X3	Y3	Z3	X4	Y4	Z4	X5	Y5	Z5	X6	Y6	Z6	X7	Y7	Z7	X8	Y8	Z8	X9	Y9	Z9	X10	Y10	Z10	X11	Y11	Z11	X12	Y12	Z12	X13	Y13	Z13	X14	Y14	Z14	X15	Y15	Z15	X16	Y16	Z16	X17	Y17	Z17	X18	Y18	Z18	X19	Y19	Z19	X20	Y20	Z20	X21	Y21	Z21
0	-2.749317978547796e-18	0.5395610304695397	-0.015343136696709392	-0.1144618932472938	0.5198120754542368	-0.0163648065795583	-0.12616381473284566	0.49054466074470393	-0.00994861681118997	-0.11773345619500711	0.4728467739956252	-0.013776406558463794	-0.0769655419698784	0.5738959869674192	0.03223376481901097	-0.150991626670395	0.5595842491373175	0.033353663453163596	-0.13994988825057814	0.5409053406369289	0.035203303501035066	-0.12322604174543991	0.5108032180495613	0.032730846423930315	-0.09320296286040597	0.48863320467489824	-0.01869731982602585	-0.1056477486027812	0.5051959130506156	-0.011373888024527767	-0.10543789648878206	0.5319051218056259	-0.0003630955649247536	-0.10928369511752335	0.5201857770069185	0.028520402512664633	-0.07727512724436018	0.5062920935768589	-0.02204365553851706	-0.09813253116332055	0.5214966389257794	-0.012619132770762764	-0.10036863745164984	0.5446943354567524	-0.003956948920610381	-0.09772035015548192	0.5300665561651865	0.01709400519681925	-0.06645365481134435	0.5965770155131939	0.018071255023916266	-0.09440378604101593	0.5820386811608038	0.013634189044371414	-0.08653299956498457	0.5631052108717387	0.009646564074278885	-0.07838225917462827	0.5316062923495699	-0.0005361335578564219	-0.06406394042324272	0.4622830810018609	-0.023011742144276814	-0.051989820119430985
1	0.03333333333333339	0.5385965899272791	-0.016165444585565902	-0.11457699345724079	0.5189155554217001	-0.016697137528004058	-0.1264249546069564	0.48965561534825236	-0.009995898087049593	-0.11819274367348026	0.47280200871922234	-0.01407516814514187	-0.07709279842549883	0.5732902988791133	0.03155447962738778	-0.15159265528322743	0.5590557798290634	0.03277961925133577	-0.1404626283149045	0.5403644529614438	0.034852927196461714	-0.12377893786307462	0.5103781188582783	0.03279760273466359	-0.09360889473400244	0.4892545116944732	-0.018611195430252803	-0.10431286363885833	0.5060074171553278	-0.011883031658261434	-0.10575229785997811	0.5322993548573915	8.103962784899998e-05	-0.10962586987191619	0.5202042861967701	0.02847662387744121	-0.0773218758430167	0.5067778879735805	-0.023281801117708945	-0.09680120135396952	0.5220554098712343	-0.014143772232952267	-0.09964615350964148	0.5447550780656056	-0.004047948214136676	-0.09792006537557822	0.5302053361285701	0.016839011140454607	-0.06650731680934585	0.5967232059029235	0.0177423797119054	-0.09437042468908041	0.582058172442039	0.013480183964866388	-0.08663928757963402	0.5631642481970768	0.00914091075993717	-0.07857688386370595	0.5318207905505326	-0.0011859931729112372	-0.0640226346930679	0.46228308100186094	-0.023011742144276814	-0.051989820119430985
2	0.06666666666666676	0.5379195103077097	-0.016826196220300682	-0.1146105916955176	0.5183033158405539	-0.016993463381677287	-0.12657624823092956	0.48904586493533625	-0.010083603106319172	-0.11850931588314037	0.4727752785246811	-0.01432472040464372	-0.07719139069424377	0.5728402088736659	0.031014417305065378	-0.15202994846246948	0.5586613744727345	0.0323272564610545	-0.14083900978953123	0.5399561109920878	0.034577685653565005	-0.12419393485521237	0.5100475758459507	0.03284359201823095	-0.09392664989808121	0.4898709613796354	-0.01835898561186977	-0.10300377032897078	0.5066680285655538	-0.012274119734171585	-0.10597579677605423	0.5326175132315374	0.00041182574124709603	-0.10986174363165921	0.5202166103362597	0.02844504503633649	-0.0773578339539708	0.507254353842554	-0.024167832736245343	-0.09578778314743173	0.5225700895430283	-0.015249885428205712	-0.09908906407523049	0.544820164747047	-0.004112905249121557	-0.09804896556730054	0.5303083546869504	0.016651755359773812	-0.06653774419177984	0.5968241058971169	0.0175029556466747	-0.09431169900197932	0.5820663559299976	0.013373531777612246	-0.08668564665377154	0.5632068526008491	0.008768273415345584	-0.07869047632446598	0.5319825789224542	-0.001675580315309233	-0.06396450934401293	0.4622830810018609	-0.023011742144277036	-0.051989820119430985
3	0.10000000000000014	0.5374824976883086	-0.01732107726464882	-0.11458640060732142	0.5179243195541876	-0.017238255943375247	-0.12664752861023795	0.488663063219565	-0.010189105528726872	-0.11871604979786166	0.47276704776763057	-0.014522513943606707	-0.07726212037902716	0.5725337123623186	0.030591627064793014	-0.15232417329770803	0.5583912217506011	0.03197682633045018	-0.14109603087378492	0.5396708452962137	0.03436450086433851	-0.12448710710593533	0.5098066712340459	0.032870933190397245	-0.09416324756945962	0.4904489442577164	-0.018041350631869735	-0.10188242725665975	0.5071846896732948	-0.012567466310491326	-0.10611933837457549	0.5328714591578111	0.0006420104089390755	-0.11000638715843972	0.5202230564939886	0.02842518583914122	-0.07738337389987585	0.5076679716562181	-0.024784085017418356	-0.09505922864834421	0.5229998049161784	-0.016016055173072363	-0.09867261231707322	0.5448888780192803	-0.004152850209598435	-0.09811330410001792	0.5303787201188292	0.016527754623396285	-0.0665460942859481	0.596889415196209	0.017350087484511834	-0.0942352848856465	0.5820673073120521	0.013316262182568428	-0.08668324070517341	0.5632347703171052	0.008523082383710134	-0.07873509647209795	0.5320977705254791	-0.0020137783540163934	-0.06389106532250674	0.46228308100186094	-0.023011742144276814	-0.051989820119430985
4	0.13333333333333353	0.537245943822744	-0.017658554015617556	-0.11451797434303587	0.5177376224526472	-0.017426646594694173	-0.1266576455193547	0.4884658455965204	-0.01029900497211389	-0.11883589350428965	0.47277649601068134	-0.014669882707450066	-0.07730723186686052	0.57235485046905	0.0302645036675272	-0.15249640258879593	0.5582319969214676	0.0317090987348857	-0.14125104119998744	0.5394959447185723	0.03420102064128516	-0.12467513983497003	0.5096477163169818	0.03288167809719755	-0.0943275091113393	0.49093128089380694	-0.01775355541752144	-0.10105400276253364	0.5075708761830242	-0.012782025006959241	-0.10619285029752767	0.5330720398755362	0.0007843102484306197	-0.11007289515114407	0.5202241480141905	0.028416093206625304	-0.07739929470261071	0.5079969576461237	-0.025196548245038697	-0.09457433006801705	0.5233315765759712	-0.016510839739077632	-0.09837010798905485	0.5449609875911251	-0.004170427358652695	-0.09811954777952513	0.5304202358914571	0.016460627852106446	-0.06653399831621487	0.5969274649053973	0.017275790165096283	-0.09414561483209681	0.5820644121845153	0.013305621292185155	-0.08664045507784447	0.5632504340427191	0.008393574397251191	-0.07872098282383766	0.5321727100289928	-0.002214772043936497	-0.06380382803780689	0.46228308100186094	-0.023011742144276814	-0.051989820119430985
5	0.1666666666666669	0.5371746656982476	-0.017856368453411875	-0.11441320084722201	0.5177085526602084	-0.01756163090605578	-0.1266190835669791	0.48841981151924474	-0.010406731104459777	-0.11888622825947832	0.4728016977424767	-0.014771682137960429	-0.07733010085892436	0.5722846771428634	0.030011674735240135	-0.15256809470206	0.5581676992106382	0.031505201395902405	-0.14132174808749393	0.5394162186614864	0.03407538950767797	-0.12477526981310368	0.5095608461885064	0.032877787098995026	-0.09442961811520224	0.4912724000756049	-0.0175598952958107	-0.10055074232240901	0.5078444179179751	-0.012934897277498525	-0.10620561791456593	0.5332293372545707	0.0008512906304967149	-0.11007297401919067	0.5202205760245113	0.028416437483089196	-0.07740674174097534	0.5082395584619238	-0.025454938737257127	-0.09429006274681348	0.5235688903943407	-0.016791306693072716	-0.09815698171529065	0.5450366328599171	-0.004169532607963378	-0.09807432957590052	0.5304372275857925	0.016442535546047687	-0.06650344352472551	0.5969454204555646	0.017268115689810237	-0.09404477451657073	0.5820604009248185	0.013335080550250344	-0.086563636357153	0.5632567114034377	0.008363228455493976	-0.07865705896036618	0.5322138302489339	-0.002296847470807162	-0.06370427454164171	0.4622830810018609	-0.023011742144277036	-0.051989820119430985
6	0.20000000000000023	0.5372359748940141	-0.01793859206047399	-0.11427682709653424	0.5178062160108682	-0.017651620094154108	-0.12654068117399941	0.4884948138933441	-0.010510450231593804	-0.1188813470711633	0.47283993466209506	-0.014835552153172449	-0.07733488814115383	0.5723021639466817	0.029811905017242513	-0.1525610210354741	0.5581804441997009	0.03134648589723843	-0.14132616042617024	0.5394147267109608	0.033976063980536986	-0.12480517379592847	0.5095346370601206	0.032861131064236826	-0.09448070741892671	0.49146175173185125	-0.017486358670779856	-0.10034646455818759	0.5080258566743845	-0.013041454558226251	-0.10616653800127676	0.5333528837485392	0.0008553792517735914	-0.11001741577683324	0.5202131454561927	0.02842462441953153	-0.07740711189157788	0.5084058431341794	-0.025596476618531927	-0.09416394821766519	0.5237243991726356	-0.016905212249785473	-0.09801151427547836	0.5451162068108055	-0.004154925602061432	-0.09798439652467893	0.5304343802750848	0.016464632447186545	-0.06645665271975837	0.5969496006515922	0.017312321483214155	-0.09393322147312819	0.5820575069192515	0.01339542731064114	-0.0864576957853896	0.5632567498854615	0.008412189060599928	-0.07855131288929072	0.532227598005217	-0.0022811452744997407	-0.06359378015857288	0.46228308100186083	-0.023011742144277036	-0.051989820119430985
7	0.23333333333333361	0.5373985521452183	-0.017933139449224145	-0.11411194331843598	0.5180018622018205	-0.017708303347461873	-0.1264293240451586	0.48866312197350653	-0.010611227649548027	-0.11883394134554498	0.47288805616459156	-0.014871017439391121	-0.07732621327388643	0.572384991466131	0.02964402132927213	-0.15249716837046115	0.5582511636361827	0.031214423227063248	-0.14128250169004683	0.5394734301195213	0.03389167094270151	-0.12478283800722095	0.5095566839420871	0.03283350678709551	-0.09449249828025902	0.49152429636568584	-0.017528084761252227	-0.10037989516421289	0.508137268539719	-0.013115727382000175	-0.1060843020485927	0.5334518415885461	0.0008089409289966376	-0.10991647555514496	0.5202027229772689	0.028438905907050338	-0.077401958607544	0.5085122949289148	-0.025650395330601317	-0.09415448243637292	0.5238156205581143	-0.016894081001890715	-0.09791416115449568	0.5452002531993635	-0.00413186537302157	-0.09785655871470474	0.5304165961743392	0.01651748652007501	-0.06639597090453309	0.5969458245915205	0.017391962880492606	-0.09381035708734992	0.5820576731862476	0.013475806041474803	-0.08632659711352103	0.5632538851322337	0.008518562704221244	-0.07841108624466481	0.5322205119127809	-0.0021905020542694054	-0.06347357876782614	0.46228308100186094	-0.023011742144276814	-0.051989820119430985
7	0.2666666666666655	0.5376317603397669	-0.01786975497041432	-0.11392091737499459	0.5182677795728592	-0.017744885767111418	-0.12629106921484265	0.4888981483724393	-0.010711504434713914	-0.11875606356226334	0.4729428102714699	-0.014888629093252392	-0.07730888252819558	0.5725101879724579	0.029486856979679676	-0.15239863474566429	0.558360175394689	0.03109052689561076	-0.1412091134489457	0.5395737291997668	0.03381090438963752	-0.12472643106241385	0.5096140927182118	0.03279665488820238	-0.09447700835979149	0.4915062783237035	-0.017662081216169856	-0.10057307495477086	0.5082014462862564	-0.013170853421377027	-0.10596753874623596	0.5335351457241648	0.0007243641834349113	-0.10978016913805745	0.5201901924890397	0.02845747612784333	-0.07739290858654989	0.5085782916112076	-0.02564198019604702	-0.09422083167797411	0.5238624241596209	-0.016796084016256874	-0.09784649203422754	0.5452893851619067	-0.004105805634873727	-0.09769764375736839	0.5303888793035527	0.016591429735487773	-0.06632376597362886	0.5969397202799388	0.01748981879031486	-0.09367496981809637	0.5820627488538258	0.013564610014597411	-0.08617373943544264	0.5632515823924596	0.008659503639339539	-0.07824329387354795	0.5321991201938203	-0.0020484776130409443	-0.06334473085892309	0.46228308100186094	-0.023011742144276814	-0.051989820119430985
